<svg id="Layer_1" data-name="Layer 1" xmlns="http://www.w3.org/2000/svg" viewBox="0 0 50 50"><defs><style>.cls-1{fill:#f8ac00;}</style></defs><title>alien</title><rect class="cls-1" x="6.34" y="37.53" width="6.21" height="6.24"/><rect class="cls-1" y="43.77" width="6.34" height="6.19"/><path class="cls-1" d="M18.89,31.25H31.28v6.28h6.34V31.25H50V18.76H43.82V12.52H37.63V6.33H31.29V0H18.9V6.33H12.55v6.19H6.35v6.24H0V31.25H12.55v6.28H18.9V31.25ZM31.28,18.76h6.34v6.29H31.28Zm-18.73,0h6.34v6.29H12.55Z"/><rect class="cls-1" x="31.28" y="43.77" width="6.34" height="6.19"/><rect class="cls-1" x="12.55" y="43.77" width="6.34" height="6.19"/><rect class="cls-1" x="43.81" y="43.77" width="6.18" height="6.19"/><rect class="cls-1" x="37.62" y="37.53" width="6.19" height="6.24"/><rect class="cls-1" x="18.89" y="37.53" width="12.39" height="6.24"/></svg>